<?xml version="1.0" standalone="no"?><!DOCTYPE svg PUBLIC "-//W3C//DTD SVG 1.1//EN" "http://www.w3.org/Graphics/SVG/1.1/DTD/svg11.dtd"><svg t="1754113189624" class="icon" viewBox="0 0 1024 1024" version="1.1" xmlns="http://www.w3.org/2000/svg" p-id="23689" xmlns:xlink="http://www.w3.org/1999/xlink" width="16" height="16"><path d="M947.2 213.35v755.2c0 29.85-25.6 55.45-55.45 55.45h-785.1c-29.85 0-55.45-25.6-55.45-55.45V55.45C51.2 25.6 76.8 0 106.65 0h627.2" fill="#63C422" p-id="23690"></path><path d="M947.2 213.35H759.45c-12.8 0-25.6-12.8-25.6-29.9V0L947.2 213.35z" fill="#A0DC78" p-id="23691"></path><path d="M307.2 362.65a64 64 0 1 0 128 0 64 64 0 0 0-128 0z m42.65 106.7l-128 256h554.7L648.55 384l-170.7 213.35z" fill="#FFFFFF" p-id="23692"></path></svg>