<svg width="620" height="182" viewBox="0 0 620 182" fill="none" xmlns="http://www.w3.org/2000/svg">
<g clip-path="url(#clip0_5535_77821)">
<path d="M156.01 23.3799C150.1 23.3799 145.28 28.1899 145.28 34.1099C145.28 40.0299 150.09 44.8399 156.01 44.8399C161.93 44.8399 166.74 40.0299 166.74 34.1099C166.74 28.1899 161.93 23.3799 156.01 23.3799ZM160.88 39.6699C157.88 39.6699 155.44 37.2299 155.44 34.2299C155.44 31.2299 157.88 28.7899 160.88 28.7899C163.88 28.7899 166.32 31.2299 166.32 34.2299C166.32 37.2299 163.88 39.6699 160.88 39.6699Z" fill="#0039C6"/>
<path d="M161.28 31.2598C159.71 31.2598 158.43 32.5398 158.43 34.1098C158.43 35.6798 159.71 36.9598 161.28 36.9598C162.85 36.9598 164.13 35.6798 164.13 34.1098C164.13 32.5398 162.85 31.2598 161.28 31.2598Z" fill="#0039C6"/>
<path d="M115.75 125.57C115.92 125.38 115.79 125.08 115.53 125.07C112.95 125.03 103.24 124.31 98.2697 116.2C95.3997 111.53 94.9297 105.72 97.0597 100.64C97.2097 100.28 97.3698 99.9298 97.5398 99.5798C97.5798 99.4898 97.5798 99.3898 97.5398 99.3098L89.2998 84.4698C89.2298 84.3398 89.0798 84.2998 88.9398 84.3298C72.3898 87.5798 62.7497 101.58 65.6697 115.39C66.4597 119.14 68.0098 122.47 70.4098 125.53C76.5398 133.32 85.6497 135.86 92.3397 135.66C106.19 135.24 113.9 127.65 115.76 125.57H115.75Z" fill="#0039C6"/>
<path d="M39.08 48.4097C44.99 41.2997 51.82 35.3997 59.47 30.7597L46.17 6.78967C45.32 5.25967 43.71 4.31967 41.96 4.33967L2.52997 4.66967C0.59997 4.68967 -0.61003 6.75967 0.32997 8.44967L30.02 61.9397C33.37 55.7397 36.76 51.1897 39.08 48.4097Z" fill="#0039C6"/>
<path d="M143.65 81.4099C140.19 81.4799 136.89 81.3299 135.09 81.6299C133.59 81.8799 129.7 82.6199 125.74 86.3299C125.57 86.4899 125.64 86.7799 125.87 86.8399C128.57 87.5499 131.06 88.7799 133.48 90.2499C138.65 93.3899 143.36 101.29 144.82 105.01C144.91 105.25 145.24 105.27 145.36 105.04L159.46 78.2299C159.59 77.9799 159.34 77.7099 159.08 77.8099C152.47 80.4999 146.98 81.3399 143.64 81.4099H143.65Z" fill="#0039C6"/>
<path d="M194.21 4.18972L156.94 4.48972C155.2 4.49972 153.6 5.46972 152.78 6.99972L151.75 9.20972C154.73 9.13972 171.64 10.4597 185.84 28.1397L196.48 7.90972C197.38 6.20972 196.13 4.16972 194.21 4.17972V4.18972Z" fill="#0039C6"/>
<path d="M88.9302 168.04L95.8402 180.48C96.7802 182.17 99.1802 182.24 100.21 180.61L110.95 163.69C104.04 166.31 96.4602 167.84 88.9302 168.04Z" fill="#0039C6"/>
<path d="M183.06 35.8898C171.08 15.9298 154.13 16.2698 154.13 16.2698C146.33 14.7498 142.35 5.9198 124.4 1.5398C107.62 -2.5602 98.2599 2.4598 104.98 5.2398C115.82 9.7298 122 27.6198 125.17 41.0998C129.22 58.3198 138.03 58.6398 147.78 57.5898C155.36 56.7798 170.53 48.9098 178.29 47.2898C186.74 45.5198 189.38 46.4598 183.04 35.8898H183.06ZM155.41 48.4998C147.46 48.4998 141.01 42.0498 141.01 34.0998C141.01 26.1498 147.46 19.6998 155.41 19.6998C163.36 19.6998 169.81 26.1498 169.81 34.0998C169.81 42.0498 163.36 48.4998 155.41 48.4998Z" fill="#0039C6"/>
<path d="M104.59 101.36C102.45 106.47 104.85 114.24 115.38 114.94C116.03 114.94 116.36 114.5 116.36 113.96C116.36 113.42 115.89 113.16 115.38 112.98C114.87 112.8 110.02 111.13 111.08 105.45C111.43 103.56 113.12 101.86 115.19 101.08C114.02 98.9099 114.01 95.9799 115.67 93.1699C112.86 93.1699 107.35 94.7599 104.58 101.37L104.59 101.36Z" fill="#0039C6"/>
<path d="M138.04 111.69C138.04 106.08 134.34 100.13 131.44 98.2401C128.92 97.3701 124.75 98.7401 122.4 102.24C125.16 104.04 126.93 106.93 127.23 114.37C127.61 124 120.32 132.28 110.55 137C125.01 134.22 138.04 122.33 138.04 111.69Z" fill="#0039C6"/>
<path d="M50.8498 127.82C22.9798 92.21 39.6898 44.58 80.3098 28.46C29.7398 45.51 14.6398 101.34 43.0298 136.42C61.8798 159.71 94.3098 160.5 111.68 154.46C90.5998 152.71 67.9798 149.72 50.8398 127.83L50.8498 127.82Z" fill="#0039C6"/>
<path d="M123.73 77.4296C123.97 77.3296 123.97 76.9896 123.73 76.8796C123.24 76.6496 122.29 76.4697 120.55 76.9097C117.18 77.7497 108.91 79.0796 109.56 75.0596C110.02 72.1996 114.6 71.2896 117.95 65.8096C119.61 63.0996 117.47 58.6396 113.12 58.6396C109.77 58.6396 106.33 60.1596 102.58 64.1296C97.3401 69.6696 96.3001 74.8697 98.3301 78.6897C100.25 82.3197 104.76 83.8796 112.29 82.6296C117.44 81.7796 119.01 79.4996 123.73 77.4196V77.4296Z" fill="#0039C6"/>
<path d="M120.41 93.1597C120.41 93.1597 116.37 94.6097 116.83 100.82C118.33 100.44 118.79 100.59 120.83 101.57C121.77 98.7997 124.17 96.4697 127.72 96.4697C128.36 96.4697 128.99 96.5397 129.61 96.6597C127.23 94.8697 124.76 93.3797 120.42 93.1597H120.41Z" fill="#0039C6"/>
<path d="M149.66 70.2798C129.62 74.4998 129.33 57.3198 114.57 53.9998C94.7002 49.5398 69.2602 61.4198 58.0902 83.0698C53.5502 91.8698 49.2702 109.12 60.4102 123.81C53.4102 104.77 63.9702 90.7598 70.7802 85.2698C77.1902 80.1098 85.0302 76.8498 92.7702 74.8798C92.9002 74.8498 92.9902 74.7298 92.9902 74.5998C93.1202 70.4198 95.2502 65.9498 99.2802 61.6898C103.55 57.1698 107.93 54.9798 112.65 54.9798C116.11 54.9798 119.15 56.7398 120.8 59.6798C122.32 62.3898 122.32 65.6198 120.8 68.0898C119.9 69.5598 118.93 70.7598 117.97 71.7498C117.79 71.9298 117.92 72.2398 118.17 72.2498C127.45 72.8298 135.08 75.0898 141.89 74.5698C167.58 72.6098 176.73 58.9198 180.03 56.3998C183.02 54.1198 160.47 67.9798 149.64 70.2598L149.66 70.2798Z" fill="#0039C6"/>
<path d="M124.29 126.68C116.78 134.19 104.48 144.78 80.6898 140.33C63.4298 137.1 50.1998 113.18 54.0498 84.3198C56.1098 68.8798 68.0798 54.4798 79.3098 49.8298C103.87 39.6698 116.78 50.4998 122.75 57.1898C126.98 61.9298 131.82 71.7197 147.46 71.5897C159.4 71.4897 180.08 57.4398 185.82 52.1398C187.78 50.3298 185.64 49.3298 182.39 49.6198C169.98 50.7298 158.48 63.9798 141.59 63.2598C133.25 62.9098 122.75 57.1798 119.05 44.8198C114.6 29.9598 114.51 26.8598 109.4 25.9798C104.05 25.0598 95.8898 24.5598 84.0898 28.2398C68.8198 33.0198 44.8698 56.4097 43.3398 84.3097C40.6898 132.56 62.2498 151.9 95.4898 156C99.2498 156.46 107.48 155.46 111.14 154.67C116.27 152.48 120.66 149.71 123.97 146.74C132.26 139.3 137.3 131.02 138.49 119.06C138.89 115.05 137.92 109.72 137.38 107.38C137.19 109.86 132.27 118.66 124.28 126.65L124.29 126.68Z" fill="#0039C6"/>
<path d="M566.74 135.65L538.78 34.4301L538.64 33.8301C538.64 32.8301 539.15 32.3301 540.16 32.3301H561.34C562.35 32.3301 563 32.8301 563.28 33.8301L579.2 101.96C579.29 102.26 579.43 102.41 579.62 102.41C579.81 102.41 579.94 102.26 580.04 101.96L595.68 33.8301C595.96 32.8301 596.6 32.3301 597.62 32.3301H618.38C618.93 32.3301 619.35 32.5301 619.63 32.9301C619.91 33.3301 619.95 33.8301 619.77 34.4301L591.4 135.65C591.12 136.65 590.52 137.15 589.6 137.15H568.56C567.64 137.15 567.04 136.65 566.76 135.65H566.74Z" fill="#0039C6"/>
<path d="M292.51 136.63C292.19 136.28 292.03 135.86 292.03 135.36V34.1401C292.03 33.6401 292.19 33.2201 292.51 32.8701C292.83 32.5201 293.22 32.3501 293.69 32.3501H313.34C313.8 32.3501 314.19 32.5301 314.52 32.8701C314.84 33.2201 315 33.6401 315 34.1401V115.14C315 115.64 315.23 115.89 315.69 115.89H359.84C360.3 115.89 360.69 116.07 361.02 116.41C361.34 116.76 361.5 117.18 361.5 117.68V135.35C361.5 135.85 361.34 136.27 361.02 136.62C360.7 136.97 360.3 137.14 359.84 137.14H293.68C293.22 137.14 292.83 136.97 292.5 136.62L292.51 136.63Z" fill="#0039C6"/>
<path d="M436.14 32.3398H455.66C456.12 32.3398 456.51 32.5198 456.84 32.8598C457.16 33.2098 457.32 33.6298 457.32 34.1298V135.35C457.32 135.85 457.16 136.27 456.84 136.62C456.52 136.97 456.12 137.14 455.66 137.14H436.01C435.55 137.14 435.16 136.97 434.83 136.62C434.51 136.27 434.35 135.85 434.35 135.35V75.1598C434.35 74.7598 434.26 74.5598 434.07 74.5598C433.88 74.5598 433.7 74.7098 433.52 75.0098L421.62 95.6698C421.25 96.4698 420.6 96.8698 419.68 96.8698H409.85C408.93 96.8698 408.28 96.4698 407.91 95.6698L395.87 74.8598C395.68 74.5598 395.5 74.4098 395.32 74.4098C395.14 74.4098 395.04 74.6098 395.04 75.0098V135.35C395.04 135.85 394.88 136.27 394.56 136.62C394.24 136.97 393.84 137.14 393.38 137.14H373.73C373.27 137.14 372.88 136.97 372.55 136.62C372.23 136.27 372.07 135.85 372.07 135.35V34.1398C372.07 33.6398 372.23 33.2198 372.55 32.8698C372.87 32.5198 373.26 32.3498 373.73 32.3498H393.25C394.08 32.3498 394.72 32.7498 395.19 33.5498L414.43 66.1898C414.71 66.7898 414.98 66.7898 415.26 66.1898L434.22 33.5498C434.59 32.7498 435.23 32.3498 436.16 32.3498L436.14 32.3398Z" fill="#0039C6"/>
<path d="M221.25 134.34C215.56 131.08 211.14 126.49 207.99 120.57C204.84 114.66 203.26 107.82 203.26 100.07V68.71C203.26 60.96 204.83 54.16 207.99 48.29C211.14 42.43 215.56 37.87 221.25 34.6C226.94 31.34 233.55 29.71 241.07 29.71C248.59 29.71 255.08 31.27 260.82 34.38C266.56 37.49 271 41.75 274.15 47.15C277.3 52.56 278.88 58.52 278.88 65.05V65.81C278.88 66.32 278.71 66.75 278.39 67.11C278.06 67.47 277.66 67.65 277.19 67.65H257.16C256.69 67.65 256.29 67.47 255.96 67.11C255.63 66.75 255.47 66.32 255.47 65.81C255.47 61.83 254.18 58.44 251.59 55.64C249 52.84 245.5 51.43 241.08 51.43C236.66 51.43 233.27 52.96 230.64 56.02C228.01 59.08 226.69 63.06 226.69 67.95V100.84C226.69 105.73 228.15 109.71 231.06 112.77C233.97 115.83 237.64 117.36 242.06 117.36C246.2 117.36 249.54 116.16 252.08 113.77C254.62 111.38 255.89 108.03 255.89 103.75V99.47C255.89 98.96 255.65 98.71 255.18 98.71H241.07C240.6 98.71 240.2 98.53 239.87 98.17C239.54 97.81 239.38 97.38 239.38 96.87V80.04C239.38 79.53 239.54 79.1 239.87 78.74C240.2 78.38 240.6 78.2 241.07 78.2H277.19C277.66 78.2 278.06 78.38 278.39 78.74C278.72 79.1 278.88 79.53 278.88 80.04V100.84C278.88 108.49 277.3 115.22 274.15 121.03C271 126.84 266.58 131.33 260.89 134.49C255.2 137.65 248.59 139.23 241.07 139.23C233.55 139.23 226.94 137.6 221.25 134.34Z" fill="#0039C6"/>
<path d="M524.14 78.8599H483.53V98.7399H524.14V78.8599Z" fill="#0039C6"/>
</g>
<defs>
<clipPath id="clip0_5535_77821">
<rect width="619.86" height="181.79" fill="white"/>
</clipPath>
</defs>
</svg>
