<svg width="155" height="49" viewBox="0 0 155 49" fill="none" xmlns="http://www.w3.org/2000/svg">
<path d="M66.867 27.7628V23.9503H75.407V33.0393C74.7157 34.1576 73.6075 35.0523 72.0825 35.7233C70.5778 36.3739 68.9105 36.6993 67.0805 36.6993C64.9048 36.6993 62.9732 36.2113 61.2855 35.2353C59.5978 34.2593 58.2863 32.8969 57.351 31.1483C56.4157 29.3996 55.948 27.3968 55.948 25.1398C55.948 22.8624 56.4258 20.8494 57.3815 19.1008C58.3575 17.3521 59.6893 15.9999 61.377 15.0443C63.0647 14.0886 64.9353 13.6107 66.989 13.6107C69.0427 13.6107 70.8218 14.0784 72.3265 15.0138C73.8515 15.9288 74.8783 17.1081 75.407 18.5518L71.747 20.6563C71.2997 19.7209 70.6592 18.9889 69.8255 18.4603C68.9918 17.9113 68.0057 17.6368 66.867 17.6368C65.6673 17.6368 64.5897 17.9418 63.634 18.5518C62.6783 19.1618 61.926 20.0361 61.377 21.1748C60.828 22.3134 60.5535 23.6351 60.5535 25.1398C60.5535 26.6851 60.828 28.0271 61.377 29.1658C61.9463 30.3044 62.7393 31.1788 63.756 31.7888C64.793 32.3988 65.9927 32.7038 67.355 32.7038C68.941 32.7038 70.1813 32.2666 71.076 31.3923V27.7628H66.867ZM79.0267 14.0073H83.4492V32.3683H93.6057V36.3333H79.0267V14.0073ZM115.446 14.0073H118.801V36.3333H114.592V21.9373L108.919 30.3858H106.601L100.898 21.8763V36.3333H96.7191V14.0073H100.227L107.852 25.5668L115.446 14.0073ZM123.038 28.2203V26.0243H134.14V28.2203H123.038ZM138.052 14.0073L145.158 32.7038L151.929 14.0073H154.674L146.195 36.3333H143.908L135.032 14.0073H138.052Z" fill="#161616"/>
<g clip-path="url(#clip0_881_1370)">
<path d="M26.3536 40.4731C26.0594 40.5314 25.7633 40.5829 25.4634 40.6278C22.4289 41.0796 19.7393 40.7883 17.4556 39.9487L18.6724 42.9526C18.8004 43.263 19.0908 43.4703 19.4279 43.4703H26.6898C27.0862 43.4703 27.3593 43.0357 27.2333 42.6842L26.3545 40.4731H26.3536Z" fill="url(#paint0_linear_881_1370)"/>
<path d="M24.1891 35.0289L20.2855 25.2063C19.9235 25.4546 19.5262 25.7775 19.1775 26.1461C17.9292 27.4661 17.0333 30.534 19.0037 33.1444C20.2845 34.8407 22.574 35.1139 24.1891 35.0289Z" fill="url(#paint1_linear_881_1370)"/>
<path d="M16.036 14.5126L13.5231 8.19057C13.3961 7.85914 13.1057 7.65283 12.7685 7.65283H5.24878C4.8524 7.65283 4.56013 8.0664 4.70531 8.45992L10.013 21.5691C11.2804 18.421 13.5431 16.0685 16.036 14.5126Z" fill="url(#paint2_linear_881_1370)"/>
<path d="M38.2323 21.4486C35.5799 23.1096 33.5799 22.8049 31.4404 23.4162C29.8692 23.8651 29.0946 24.6961 28.5864 25.7018C30.4279 25.5595 31.873 26.1412 32.7795 27.0629C33.8893 28.1928 34.4299 29.7831 34.5445 31.3725L39.2075 20.7695C38.8904 21.0102 38.5647 21.2395 38.2333 21.4477L38.2323 21.4486Z" fill="url(#paint3_linear_881_1370)"/>
<path d="M25.4623 40.6278C24.1442 40.8236 22.891 40.8799 21.7086 40.8121L20.8986 42.6851C20.7601 43.0366 21.018 43.4712 21.4144 43.4712H28.6763C29.0134 43.4712 29.3114 43.2639 29.4499 42.9535L31.472 38.3564C29.8435 39.5809 27.7297 40.2906 25.4623 40.6278Z" fill="url(#paint4_linear_881_1370)"/>
<path d="M44.1056 7.65283H36.5858C36.2487 7.65283 35.9507 7.8601 35.8122 8.19057L35.2534 9.48287C37.3767 9.68058 40.3968 10.9203 42.1581 14.0608L44.6214 8.45992C44.7799 8.0664 44.502 7.65283 44.1056 7.65283Z" fill="url(#paint5_linear_881_1370)"/>
<path d="M35.7145 15.8787C36.9112 15.8252 37.8425 14.8071 37.7881 13.6103C37.7346 12.4135 36.7164 11.4823 35.5196 11.5367C34.3219 11.5902 33.3916 12.6084 33.4451 13.8051C33.4986 15.0019 34.5167 15.9332 35.7135 15.8797L35.7145 15.8787ZM36.6581 13.0831C36.9762 13.0687 37.2465 13.3161 37.2608 13.6342C37.2751 13.9522 37.0278 14.2225 36.7097 14.2369C36.3917 14.2512 36.1214 14.0038 36.107 13.6857C36.0927 13.3677 36.3401 13.0974 36.6581 13.0831Z" fill="url(#paint6_linear_881_1370)"/>
<path d="M24.8355 8.33587C27.0715 9.14678 28.4841 12.7132 29.2483 15.4115C30.2244 18.8605 32.2006 18.8376 34.1672 18.5367C35.6944 18.3027 38.6936 16.5739 40.2514 16.1737C41.9458 15.7391 42.4893 15.9053 41.11 13.8231C38.9381 10.5451 36.1959 10.1544 35.342 10.1153C34.9246 10.0962 34.5158 9.98634 34.1452 9.79341C32.9962 9.19454 31.6447 7.98343 28.7334 7.4094C25.2997 6.73221 23.4506 7.83156 24.8355 8.33396V8.33587ZM35.3649 10.7973C36.9753 10.7256 38.3382 11.9721 38.4108 13.5815C38.4825 15.1918 37.236 16.5548 35.6266 16.6274C34.0163 16.699 32.6533 15.4526 32.5807 13.8432C32.5091 12.2328 33.7555 10.8698 35.3649 10.7973Z" fill="url(#paint7_linear_881_1370)"/>
<path d="M28.0146 20.6275C28.3259 20.0544 27.8503 19.1537 26.9697 19.1929C26.2906 19.2235 25.6095 19.5683 24.8865 20.4202C23.876 21.6103 23.7146 22.6896 24.1606 23.4604C24.5837 24.1911 25.5093 24.4709 27.0231 24.1462C28.0576 23.9246 28.3556 23.4394 29.2916 22.9685C29.3384 22.9446 29.3355 22.8759 29.2868 22.8558C29.1856 22.8138 28.9917 22.7851 28.644 22.8902C27.9706 23.0946 26.3068 23.4432 26.4014 22.6094C26.4692 22.0153 27.3861 21.7861 28.0146 20.6275Z" fill="url(#paint8_linear_881_1370)"/>
<path d="M41.1044 16.6992C38.602 17.0411 36.3966 19.876 32.9715 19.8807C31.28 19.8836 28.9103 18.8081 28.0468 16.2932C27.0096 13.2703 26.9618 12.6332 25.9188 12.4985C25.3534 12.4259 23.7134 12.3868 22.0152 12.7631C19.3513 13.3543 17.0953 14.7335 16.2232 15.3906C9.4313 20.5111 8.10748 30.0577 13.3187 36.0416C16.1277 39.2671 20.3466 40.2661 23.7134 40.0741C30.3974 39.6921 33.1253 35.2393 33.2953 32.1446C33.4997 28.4311 30.6352 25.7175 27.5167 27.0146C26.765 27.3269 26.1576 27.942 25.935 28.9191C25.681 30.0309 26.0812 31.7397 28.2197 31.7874C28.4136 31.7817 28.4977 31.6976 28.5053 31.5735C28.512 31.4627 28.4327 31.3929 28.2933 31.328C28.1939 31.2812 27.2331 30.7836 27.5349 29.7301C27.8052 28.7892 29.1395 28.5161 29.8912 29.306C30.6496 30.1016 30.9418 31.52 30.1787 33.1007C29.3697 34.776 26.4221 36.8553 21.6226 35.9002C19.9693 35.5707 16.9845 33.9756 16.7209 30.3767C16.5318 27.7988 17.8145 25.9898 18.826 25.0824C20.0868 23.9496 21.6226 23.1463 23.19 22.6697C23.1623 21.7948 23.4393 20.9361 24.2282 20.0068C25.0515 19.0373 25.9169 18.5455 26.8739 18.5025C27.574 18.471 28.1767 18.7441 28.5368 19.3363C28.8692 19.8817 28.7985 20.5503 28.5139 21.0746C28.3171 21.4366 28.0994 21.7222 27.8864 21.9553C29.831 21.9734 31.5397 22.3889 32.9457 22.216C36.8723 21.7327 39.0051 19.9428 39.9965 18.8683C40.2821 18.5588 40.5887 18.2704 40.9144 18.002C41.3002 17.6839 41.6135 17.4002 41.8217 17.1863C42.2019 16.7947 41.7597 16.6084 41.1044 16.6982V16.6992ZM14.0255 32.7015C10.694 27.6813 11.3588 21.5914 14.8412 17.2866C16.3063 15.7001 17.8899 14.7182 19.1001 14.1346C16.2844 16.1118 13.1277 20.3659 13.0837 25.1177C13.056 28.1589 13.462 30.6221 14.2289 32.5955C14.4477 33.158 14.3588 33.2039 14.0255 32.7015ZM26.8348 17.5569C22.0734 16.5607 17.931 19.4509 15.8689 24.0126C15.7361 24.3059 15.612 24.6621 15.5059 25.0633C15.3674 25.5867 15.1974 25.6411 15.2509 25.0203C15.525 21.8187 17.8154 18.7432 20.0476 17.6839C23.1222 16.2235 25.3343 16.5244 26.8691 17.277C27.3897 17.533 27.3524 17.6648 26.8357 17.5569H26.8348Z" fill="url(#paint9_linear_881_1370)"/>
</g>
<defs>
<linearGradient id="paint0_linear_881_1370" x1="22.3592" y1="7.50288" x2="22.3592" y2="42.9622" gradientUnits="userSpaceOnUse">
<stop stop-color="#5693FC"/>
<stop offset="0.34" stop-color="#4D83FF"/>
<stop offset="1" stop-color="#364ECF"/>
</linearGradient>
<linearGradient id="paint1_linear_881_1370" x1="21.0209" y1="7.19632" x2="21.0209" y2="42.9622" gradientUnits="userSpaceOnUse">
<stop stop-color="#5693FC"/>
<stop offset="0.34" stop-color="#4D83FF"/>
<stop offset="1" stop-color="#364ECF"/>
</linearGradient>
<linearGradient id="paint2_linear_881_1370" x1="10.3511" y1="7.50288" x2="10.3511" y2="42.9622" gradientUnits="userSpaceOnUse">
<stop stop-color="#5693FC"/>
<stop offset="0.34" stop-color="#4D83FF"/>
<stop offset="1" stop-color="#364ECF"/>
</linearGradient>
<linearGradient id="paint3_linear_881_1370" x1="33.896" y1="7.50274" x2="33.896" y2="42.962" gradientUnits="userSpaceOnUse">
<stop stop-color="#5693FC"/>
<stop offset="0.34" stop-color="#4D83FF"/>
<stop offset="1" stop-color="#364ECF"/>
</linearGradient>
<linearGradient id="paint4_linear_881_1370" x1="26.1672" y1="7.50278" x2="26.1672" y2="42.9621" gradientUnits="userSpaceOnUse">
<stop stop-color="#5693FC"/>
<stop offset="0.34" stop-color="#4D83FF"/>
<stop offset="1" stop-color="#364ECF"/>
</linearGradient>
<linearGradient id="paint5_linear_881_1370" x1="39.9603" y1="7.50288" x2="39.9603" y2="42.9622" gradientUnits="userSpaceOnUse">
<stop stop-color="#5693FC"/>
<stop offset="0.34" stop-color="#4D83FF"/>
<stop offset="1" stop-color="#364ECF"/>
</linearGradient>
<linearGradient id="paint6_linear_881_1370" x1="35.617" y1="7.50317" x2="35.617" y2="42.9625" gradientUnits="userSpaceOnUse">
<stop stop-color="#5693FC"/>
<stop offset="0.34" stop-color="#4D83FF"/>
<stop offset="1" stop-color="#364ECF"/>
</linearGradient>
<linearGradient id="paint7_linear_881_1370" x1="33.1318" y1="7.503" x2="33.1318" y2="42.9623" gradientUnits="userSpaceOnUse">
<stop stop-color="#5693FC"/>
<stop offset="0.34" stop-color="#4D83FF"/>
<stop offset="1" stop-color="#364ECF"/>
</linearGradient>
<linearGradient id="paint8_linear_881_1370" x1="26.6258" y1="7.50302" x2="26.6258" y2="42.9623" gradientUnits="userSpaceOnUse">
<stop stop-color="#5693FC"/>
<stop offset="0.34" stop-color="#4D83FF"/>
<stop offset="1" stop-color="#364ECF"/>
</linearGradient>
<linearGradient id="paint9_linear_881_1370" x1="26.0468" y1="7.50316" x2="26.0468" y2="42.9625" gradientUnits="userSpaceOnUse">
<stop stop-color="#5693FC"/>
<stop offset="0.34" stop-color="#4D83FF"/>
<stop offset="1" stop-color="#364ECF"/>
</linearGradient>
<clipPath id="clip0_881_1370">
<rect width="40" height="36.274" fill="white" transform="translate(4.66699 7.19629)"/>
</clipPath>
</defs>
</svg>
