<?xml version="1.0" encoding="utf-8"?>
<!-- Generator: Adobe Illustrator 28.2.0, SVG Export Plug-In . SVG Version: 6.00 Build 0)  -->
<svg version="1.1" xmlns="http://www.w3.org/2000/svg" xmlns:xlink="http://www.w3.org/1999/xlink" x="0px" y="0px"
	 viewBox="0 0 400 400" style="enable-background:new 0 0 400 400;" xml:space="preserve">
<style type="text/css">
	.st0{fill:#0039C6;}
</style>
<g id="图层_2">
	<g>
		<g>
			<g>
				<path class="st0" d="M248.93,129.06c-5.91,0-10.73,4.81-10.73,10.73c0,5.91,4.81,10.73,10.73,10.73
					c5.91,0,10.73-4.81,10.73-10.73C259.66,133.87,254.85,129.06,248.93,129.06z M253.8,145.35c-3,0-5.44-2.44-5.44-5.44
					c0-3,2.44-5.44,5.44-5.44c3,0,5.44,2.44,5.44,5.44C259.24,142.91,256.8,145.35,253.8,145.35z"/>
			</g>
			<g>
				<path class="st0" d="M254.2,136.94c-1.57,0-2.85,1.28-2.85,2.85c0,1.57,1.28,2.85,2.85,2.85c1.57,0,2.85-1.28,2.85-2.85
					C257.05,138.21,255.77,136.94,254.2,136.94z"/>
			</g>
		</g>
		<g>
			<path class="st0" d="M208.68,231.25c0.17-0.19,0.04-0.49-0.22-0.5c-2.58-0.04-12.29-0.76-17.26-8.87
				c-2.87-4.67-3.34-10.48-1.21-15.56c0.15-0.36,0.31-0.71,0.48-1.06c0.04-0.09,0.04-0.19-0.01-0.27l-8.24-14.84
				c-0.07-0.13-0.22-0.17-0.36-0.14c-16.55,3.25-26.19,17.25-23.27,31.06c0.79,3.75,2.34,7.08,4.74,10.14
				c6.13,7.79,15.24,10.33,21.93,10.13C199.11,240.92,206.82,233.34,208.68,231.25z"/>
			<path class="st0" d="M132,154.09c5.91-7.11,12.74-13.01,20.39-17.65l-13.3-23.96c-0.85-1.53-2.46-2.47-4.21-2.45l-39.43,0.33
				c-1.93,0.02-3.14,2.09-2.2,3.78l29.7,53.49C126.3,161.42,129.69,156.87,132,154.09z"/>
			<path class="st0" d="M236.57,187.09c-3.46,0.07-6.76-0.08-8.56,0.22c-1.5,0.25-5.39,0.99-9.35,4.7c-0.17,0.16-0.1,0.45,0.13,0.51
				c2.7,0.71,5.19,1.94,7.61,3.41c5.17,3.14,9.88,11.04,11.34,14.76c0.09,0.24,0.42,0.26,0.54,0.03l14.1-26.81
				c0.13-0.25-0.12-0.52-0.38-0.42C245.4,186.18,239.91,187.02,236.57,187.09z"/>
			<path class="st0" d="M287.13,109.87l-37.27,0.3c-1.74,0.01-3.34,0.98-4.16,2.51l-1.03,2.21c2.98-0.07,19.89,1.25,34.09,18.93
				l10.64-20.23C290.3,111.9,289.06,109.86,287.13,109.87z"/>
			<path class="st0" d="M181.85,273.71l6.91,12.44c0.94,1.69,3.34,1.76,4.37,0.13l10.74-16.92
				C196.95,271.98,189.37,273.52,181.85,273.71z"/>
		</g>
		<path class="st0" d="M275.98,141.57c-11.98-19.96-28.93-19.62-28.93-19.62c-7.8-1.52-11.78-10.35-29.73-14.73
			c-16.78-4.1-26.14,0.92-19.42,3.7c10.84,4.49,17.02,22.38,20.19,35.86c4.05,17.22,12.86,17.54,22.61,16.49
			c7.58-0.81,22.75-8.68,30.51-10.3C279.68,151.2,282.32,152.14,275.98,141.57z M248.33,154.19c-7.95,0-14.4-6.45-14.4-14.4
			c0-7.95,6.45-14.4,14.4-14.4c7.95,0,14.4,6.45,14.4,14.4C262.73,147.74,256.28,154.19,248.33,154.19z"/>
		<path class="st0" d="M227.8,229.49"/>
		<g>
			<path class="st0" d="M197.52,207.04c-2.14,5.11,0.26,12.88,10.79,13.58c0.65,0,0.98-0.44,0.98-0.98c0-0.54-0.47-0.8-0.98-0.98
				c-0.51-0.18-5.36-1.85-4.3-7.53c0.35-1.89,2.04-3.59,4.11-4.37c-1.17-2.17-1.18-5.1,0.48-7.91
				C205.79,198.84,200.28,200.43,197.52,207.04z"/>
			<path class="st0" d="M230.96,217.37c0-5.61-3.7-11.56-6.6-13.45c-2.52-0.87-6.69,0.5-9.04,4c2.76,1.8,4.53,4.69,4.83,12.13
				c0.38,9.63-6.91,17.91-16.68,22.63C217.93,239.9,230.96,228,230.96,217.37z"/>
			<path class="st0" d="M143.77,233.5c-27.87-35.61-11.16-83.24,29.46-99.36c-50.57,17.04-65.67,72.87-37.27,107.96
				c18.85,23.29,51.28,24.08,68.65,18.04C183.53,258.39,160.91,255.4,143.77,233.5z"/>
		</g>
		<path class="st0" d="M216.65,183.11c0.24-0.1,0.24-0.44,0-0.55c-0.49-0.23-1.44-0.41-3.18,0.03c-3.37,0.84-11.64,2.17-10.99-1.85
			c0.46-2.86,5.04-3.77,8.39-9.25c1.66-2.71-0.48-7.17-4.83-7.17c-3.35,0-6.79,1.52-10.54,5.49c-5.24,5.54-6.28,10.74-4.25,14.56
			c1.92,3.63,6.43,5.19,13.96,3.94C210.35,187.47,211.93,185.19,216.65,183.11z"/>
		<path class="st0" d="M213.33,198.84c0,0-4.04,1.45-3.58,7.66c1.5-0.38,1.96-0.23,4,0.75c0.94-2.77,3.34-5.1,6.89-5.1
			c0.64,0,1.27,0.07,1.89,0.19C220.14,200.56,217.67,199.06,213.33,198.84z"/>
		<path class="st0" d="M242.58,175.96c-20.04,4.22-20.33-12.96-35.09-16.28c-19.87-4.46-45.31,7.42-56.48,29.07
			c-4.54,8.8-8.82,26.05,2.32,40.74c-7-19.04,3.56-33.05,10.37-38.54c6.41-5.16,14.25-8.42,21.99-10.39
			c0.13-0.03,0.22-0.15,0.22-0.28c0.13-4.18,2.26-8.65,6.29-12.91c4.27-4.52,8.65-6.71,13.37-6.71c3.46,0,6.5,1.76,8.15,4.7
			c1.52,2.71,1.52,5.94,0.01,8.41c-0.9,1.47-1.87,2.67-2.83,3.66c-0.18,0.18-0.05,0.49,0.2,0.5c9.28,0.58,16.91,2.84,23.72,2.32
			c25.69-1.96,34.84-15.65,38.14-18.17C275.97,159.82,253.41,173.68,242.58,175.96z"/>
		<path class="st0" d="M217.22,232.36c-7.51,7.51-19.81,18.1-43.6,13.65c-17.26-3.23-30.49-27.15-26.64-56.01
			c2.06-15.44,14.03-29.84,25.26-34.49c24.56-10.16,37.47,0.67,43.44,7.36c4.23,4.74,9.07,14.53,24.71,14.4
			c11.94-0.1,32.62-14.15,38.36-19.45c1.96-1.81-0.18-2.81-3.43-2.52c-12.41,1.11-23.91,14.36-40.8,13.64
			c-8.34-0.35-18.84-6.08-22.54-18.44c-4.45-14.86-4.54-17.96-9.65-18.84c-5.35-0.92-13.51-1.42-25.31,2.26
			c-15.27,4.78-39.22,28.17-40.75,56.07c-2.65,48.25,18.91,67.59,52.15,71.69c3.76,0.46,11.99-0.54,15.65-1.33
			c5.13-2.19,9.52-4.96,12.83-7.93c8.29-7.44,13.33-15.72,14.52-27.68c0.4-4.01-0.57-9.34-1.11-11.68
			C230.12,215.57,225.21,224.37,217.22,232.36z"/>
	</g>
</g>
<g id="图层_1">
</g>
</svg>
