<svg width="156" height="49" viewBox="0 0 156 49" fill="none" xmlns="http://www.w3.org/2000/svg">
<path d="M66.2 27.7628V23.9503H74.74V33.0393C74.0487 34.1576 72.9405 35.0523 71.4155 35.7233C69.9108 36.3739 68.2435 36.6993 66.4135 36.6993C64.2378 36.6993 62.3062 36.2113 60.6185 35.2353C58.9308 34.2593 57.6193 32.8969 56.684 31.1483C55.7487 29.3996 55.281 27.3968 55.281 25.1398C55.281 22.8624 55.7588 20.8494 56.7145 19.1008C57.6905 17.3521 59.0223 15.9999 60.71 15.0443C62.3977 14.0886 64.2683 13.6107 66.322 13.6107C68.3757 13.6107 70.1548 14.0784 71.6595 15.0138C73.1845 15.9288 74.2113 17.1081 74.74 18.5518L71.08 20.6563C70.6327 19.7209 69.9922 18.9889 69.1585 18.4603C68.3248 17.9113 67.3387 17.6368 66.2 17.6368C65.0003 17.6368 63.9227 17.9418 62.967 18.5518C62.0113 19.1618 61.259 20.0361 60.71 21.1748C60.161 22.3134 59.8865 23.6351 59.8865 25.1398C59.8865 26.6851 60.161 28.0271 60.71 29.1658C61.2793 30.3044 62.0723 31.1788 63.089 31.7888C64.126 32.3988 65.3257 32.7038 66.688 32.7038C68.274 32.7038 69.5143 32.2666 70.409 31.3923V27.7628H66.2ZM78.3597 14.0073H82.7822V32.3683H92.9387V36.3333H78.3597V14.0073ZM114.779 14.0073H118.134V36.3333H113.925V21.9373L108.252 30.3858H105.934L100.231 21.8763V36.3333H96.0521V14.0073H99.5596L107.185 25.5668L114.779 14.0073ZM122.249 28.8913V25.3533H133.687V28.8913H122.249ZM139.099 14.0073L145.077 30.1418L150.811 14.0073H155.539L146.846 36.3333H143.095L134.067 14.0073H139.099Z" fill="#161616"/>
<g clip-path="url(#clip0_881_1370)">
<path d="M25.6866 40.4731C25.3924 40.5314 25.0963 40.5829 24.7964 40.6278C21.7619 41.0796 19.0723 40.7883 16.7886 39.9487L18.0054 42.9526C18.1334 43.263 18.4238 43.4703 18.7609 43.4703H26.0228C26.4192 43.4703 26.6923 43.0357 26.5663 42.6842L25.6875 40.4731H25.6866Z" fill="url(#paint0_linear_881_1370)"/>
<path d="M23.5221 35.0289L19.6185 25.2063C19.2565 25.4546 18.8592 25.7775 18.5105 26.1461C17.2622 27.4661 16.3663 30.534 18.3367 33.1444C19.6175 34.8407 21.907 35.1139 23.5221 35.0289Z" fill="url(#paint1_linear_881_1370)"/>
<path d="M15.3691 14.5126L12.8561 8.19057C12.7291 7.85914 12.4387 7.65283 12.1015 7.65283H4.58178C4.1854 7.65283 3.89313 8.0664 4.03831 8.45992L9.34599 21.5691C10.6134 18.421 12.8762 16.0685 15.3691 14.5126Z" fill="url(#paint2_linear_881_1370)"/>
<path d="M37.5653 21.4486C34.9129 23.1096 32.9129 22.8049 30.7734 23.4162C29.2022 23.8651 28.4276 24.6961 27.9194 25.7018C29.7609 25.5595 31.206 26.1412 32.1125 27.0629C33.2223 28.1928 33.7629 29.7831 33.8776 31.3725L38.5405 20.7695C38.2234 21.0102 37.8977 21.2395 37.5663 21.4477L37.5653 21.4486Z" fill="url(#paint3_linear_881_1370)"/>
<path d="M24.7953 40.6278C23.4772 40.8236 22.2241 40.8799 21.0416 40.8121L20.2316 42.6851C20.0932 43.0366 20.351 43.4712 20.7474 43.4712H28.0093C28.3465 43.4712 28.6445 43.2639 28.7829 42.9535L30.805 38.3564C29.1765 39.5809 27.0628 40.2906 24.7953 40.6278Z" fill="url(#paint4_linear_881_1370)"/>
<path d="M43.4386 7.65283H35.9188C35.5817 7.65283 35.2837 7.8601 35.1452 8.19057L34.5864 9.48287C36.7097 9.68058 39.7298 10.9203 41.4911 14.0608L43.9544 8.45992C44.1129 8.0664 43.835 7.65283 43.4386 7.65283Z" fill="url(#paint5_linear_881_1370)"/>
<path d="M35.0475 15.8787C36.2443 15.8252 37.1755 14.8071 37.1211 13.6103C37.0676 12.4135 36.0494 11.4823 34.8526 11.5367C33.6549 11.5902 32.7246 12.6084 32.7781 13.8051C32.8316 15.0019 33.8497 15.9332 35.0465 15.8797L35.0475 15.8787ZM35.9911 13.0831C36.3092 13.0687 36.5795 13.3161 36.5938 13.6342C36.6082 13.9522 36.3608 14.2225 36.0427 14.2369C35.7247 14.2512 35.4544 14.0038 35.44 13.6857C35.4257 13.3677 35.6731 13.0974 35.9911 13.0831Z" fill="url(#paint6_linear_881_1370)"/>
<path d="M24.1685 8.33587C26.4045 9.14678 27.8172 12.7132 28.5813 15.4115C29.5574 18.8605 31.5336 18.8376 33.5002 18.5367C35.0274 18.3027 38.0266 16.5739 39.5844 16.1737C41.2788 15.7391 41.8223 15.9053 40.443 13.8231C38.2711 10.5451 35.5289 10.1544 34.675 10.1153C34.2576 10.0962 33.8488 9.98634 33.4782 9.79341C32.3292 9.19454 30.9777 7.98343 28.0664 7.4094C24.6327 6.73221 22.7836 7.83156 24.1685 8.33396V8.33587ZM34.6979 10.7973C36.3083 10.7256 37.6713 11.9721 37.7438 13.5815C37.8155 15.1918 36.569 16.5548 34.9596 16.6274C33.3493 16.699 31.9863 15.4526 31.9137 13.8432C31.8421 12.2328 33.0885 10.8698 34.6979 10.7973Z" fill="url(#paint7_linear_881_1370)"/>
<path d="M27.3476 20.6275C27.659 20.0544 27.1833 19.1537 26.3027 19.1929C25.6236 19.2235 24.9426 19.5683 24.2195 20.4202C23.209 21.6103 23.0476 22.6896 23.4936 23.4604C23.9167 24.1911 24.8423 24.4709 26.3562 24.1462C27.3906 23.9246 27.6886 23.4394 28.6246 22.9685C28.6714 22.9446 28.6685 22.8759 28.6198 22.8558C28.5186 22.8138 28.3247 22.7851 27.977 22.8902C27.3036 23.0946 25.6398 23.4432 25.7344 22.6094C25.8022 22.0153 26.7191 21.7861 27.3476 20.6275Z" fill="url(#paint8_linear_881_1370)"/>
<path d="M40.4375 16.6992C37.935 17.0411 35.7296 19.876 32.3045 19.8807C30.613 19.8836 28.2433 18.8081 27.3798 16.2932C26.3426 13.2703 26.2948 12.6332 25.2518 12.4985C24.6864 12.4259 23.0464 12.3868 21.3482 12.7631C18.6843 13.3543 16.4283 14.7335 15.5563 15.3906C8.7643 20.5111 7.44049 30.0577 12.6517 36.0416C15.4607 39.2671 19.6796 40.2661 23.0464 40.0741C29.7304 39.6921 32.4583 35.2393 32.6283 32.1446C32.8327 28.4311 29.9682 25.7175 26.8497 27.0146C26.098 27.3269 25.4906 27.942 25.268 28.9191C25.014 30.0309 25.4142 31.7397 27.5527 31.7874C27.7466 31.7817 27.8307 31.6976 27.8383 31.5735C27.845 31.4627 27.7657 31.3929 27.6263 31.328C27.5269 31.2812 26.5661 30.7836 26.8679 29.7301C27.1382 28.7892 28.4725 28.5161 29.2242 29.306C29.9826 30.1016 30.2748 31.52 29.5117 33.1007C28.7027 34.776 25.7552 36.8553 20.9556 35.9002C19.3023 35.5707 16.3175 33.9756 16.0539 30.3767C15.8648 27.7988 17.1475 25.9898 18.159 25.0824C19.4198 23.9496 20.9556 23.1463 22.523 22.6697C22.4953 21.7948 22.7723 20.9361 23.5612 20.0068C24.3845 19.0373 25.2499 18.5455 26.2069 18.5025C26.907 18.471 27.5097 18.7441 27.8698 19.3363C28.2022 19.8817 28.1315 20.5503 27.8469 21.0746C27.6501 21.4366 27.4324 21.7222 27.2194 21.9553C29.164 21.9734 30.8728 22.3889 32.2787 22.216C36.2053 21.7327 38.3381 19.9428 39.3295 18.8683C39.6151 18.5588 39.9217 18.2704 40.2474 18.002C40.6333 17.6839 40.9465 17.4002 41.1548 17.1863C41.5349 16.7947 41.0927 16.6084 40.4375 16.6982V16.6992ZM13.3585 32.7015C10.027 27.6813 10.6918 21.5914 14.1742 17.2866C15.6393 15.7001 17.223 14.7182 18.4331 14.1346C15.6174 16.1118 12.4607 20.3659 12.4167 25.1177C12.389 28.1589 12.795 30.6222 13.5619 32.5955C13.7807 33.158 13.6918 33.2039 13.3585 32.7015ZM26.1678 17.5569C21.4064 16.5607 17.264 19.4509 15.2019 24.0126C15.0691 24.3059 14.945 24.6621 14.8389 25.0633C14.7005 25.5867 14.5304 25.6411 14.5839 25.0203C14.858 21.8187 17.1485 18.7432 19.3806 17.6839C22.4552 16.2235 24.6673 16.5244 26.2022 17.277C26.7227 17.533 26.6855 17.6648 26.1687 17.5569H26.1678Z" fill="url(#paint9_linear_881_1370)"/>
</g>
<defs>
<linearGradient id="paint0_linear_881_1370" x1="21.6922" y1="7.50288" x2="21.6922" y2="42.9622" gradientUnits="userSpaceOnUse">
<stop stop-color="#5693FC"/>
<stop offset="0.34" stop-color="#4D83FF"/>
<stop offset="1" stop-color="#364ECF"/>
</linearGradient>
<linearGradient id="paint1_linear_881_1370" x1="20.354" y1="7.19632" x2="20.354" y2="42.9622" gradientUnits="userSpaceOnUse">
<stop stop-color="#5693FC"/>
<stop offset="0.34" stop-color="#4D83FF"/>
<stop offset="1" stop-color="#364ECF"/>
</linearGradient>
<linearGradient id="paint2_linear_881_1370" x1="9.6841" y1="7.50288" x2="9.6841" y2="42.9622" gradientUnits="userSpaceOnUse">
<stop stop-color="#5693FC"/>
<stop offset="0.34" stop-color="#4D83FF"/>
<stop offset="1" stop-color="#364ECF"/>
</linearGradient>
<linearGradient id="paint3_linear_881_1370" x1="33.229" y1="7.50274" x2="33.229" y2="42.962" gradientUnits="userSpaceOnUse">
<stop stop-color="#5693FC"/>
<stop offset="0.34" stop-color="#4D83FF"/>
<stop offset="1" stop-color="#364ECF"/>
</linearGradient>
<linearGradient id="paint4_linear_881_1370" x1="25.5002" y1="7.50278" x2="25.5002" y2="42.9621" gradientUnits="userSpaceOnUse">
<stop stop-color="#5693FC"/>
<stop offset="0.34" stop-color="#4D83FF"/>
<stop offset="1" stop-color="#364ECF"/>
</linearGradient>
<linearGradient id="paint5_linear_881_1370" x1="39.2933" y1="7.50288" x2="39.2933" y2="42.9622" gradientUnits="userSpaceOnUse">
<stop stop-color="#5693FC"/>
<stop offset="0.34" stop-color="#4D83FF"/>
<stop offset="1" stop-color="#364ECF"/>
</linearGradient>
<linearGradient id="paint6_linear_881_1370" x1="34.95" y1="7.50317" x2="34.95" y2="42.9625" gradientUnits="userSpaceOnUse">
<stop stop-color="#5693FC"/>
<stop offset="0.34" stop-color="#4D83FF"/>
<stop offset="1" stop-color="#364ECF"/>
</linearGradient>
<linearGradient id="paint7_linear_881_1370" x1="32.4648" y1="7.503" x2="32.4648" y2="42.9623" gradientUnits="userSpaceOnUse">
<stop stop-color="#5693FC"/>
<stop offset="0.34" stop-color="#4D83FF"/>
<stop offset="1" stop-color="#364ECF"/>
</linearGradient>
<linearGradient id="paint8_linear_881_1370" x1="25.9588" y1="7.50302" x2="25.9588" y2="42.9623" gradientUnits="userSpaceOnUse">
<stop stop-color="#5693FC"/>
<stop offset="0.34" stop-color="#4D83FF"/>
<stop offset="1" stop-color="#364ECF"/>
</linearGradient>
<linearGradient id="paint9_linear_881_1370" x1="25.3798" y1="7.50316" x2="25.3798" y2="42.9625" gradientUnits="userSpaceOnUse">
<stop stop-color="#5693FC"/>
<stop offset="0.34" stop-color="#4D83FF"/>
<stop offset="1" stop-color="#364ECF"/>
</linearGradient>
<clipPath id="clip0_881_1370">
<rect width="40" height="36.274" fill="white" transform="translate(4 7.19629)"/>
</clipPath>
</defs>
</svg>
